<svg width="17" height="18" viewBox="0 0 17 18" fill="none" xmlns="http://www.w3.org/2000/svg">
<path d="M8.83271 14.9509L8.57344 17C10.6451 16.1366 12.4907 14.8089 13.968 13.1193C15.1472 11.6277 15.742 9.75727 15.6407 7.85856C15.573 5.97312 14.7592 4.19177 13.3781 2.9064C11.9971 1.62103 10.162 0.936926 8.27653 1.00458C6.39109 1.07223 4.60974 1.88611 3.32437 3.26716C2.039 4.6482 1.35489 6.4833 1.42255 8.36875C1.56473 12.0153 5.10254 15.0847 8.83271 14.9509Z" stroke="#003596" stroke-width="1.25454" stroke-linecap="round" stroke-linejoin="round"/>
<path d="M7.11719 6.2444C7.12131 6.0077 7.18311 5.77558 7.29723 5.56817C7.41136 5.36076 7.57436 5.18432 7.7721 5.05416C7.96984 4.924 8.19635 4.84404 8.43198 4.82123C8.66762 4.79841 8.90526 4.83343 9.1243 4.92323C9.34334 5.01304 9.53716 5.15493 9.68896 5.33659C9.84076 5.51825 9.94594 5.7342 9.9954 5.96571C10.0449 6.19723 10.0371 6.43731 9.97276 6.66514C9.90843 6.89297 9.7895 7.10166 9.62627 7.27313L9.68482 7.21458L8.57246 8.38549V9.05458" stroke="#003596" stroke-width="1.25454" stroke-linecap="round" stroke-linejoin="round"/>
<path d="M8.57219 12.1493C8.99714 12.1493 9.34164 11.8048 9.34164 11.3798C9.34164 10.9548 8.99714 10.6104 8.57219 10.6104C8.14723 10.6104 7.80273 10.9548 7.80273 11.3798C7.80273 11.8048 8.14723 12.1493 8.57219 12.1493Z" fill="#003596"/>
</svg>
