<svg width="24" height="24" viewBox="0 0 24 24" fill="none" xmlns="http://www.w3.org/2000/svg">
<g clip-path="url(#clip0_2306_28465)">
<mask id="mask0_2306_28465" style="mask-type:luminance" maskUnits="userSpaceOnUse" x="0" y="0" width="24" height="24">
<path d="M23.7356 0H0.509766V24H23.7356V0Z" fill="white"/>
</mask>
<g mask="url(#mask0_2306_28465)">
<path fill-rule="evenodd" clip-rule="evenodd" d="M2.59961 0.799766C2.59961 0.225389 3.05021 -0.240234 3.60606 -0.240234H15.0216C15.2886 -0.240234 15.5445 -0.130663 15.7333 0.0643751L21.2943 5.81078C21.4822 6.00494 21.5882 6.26799 21.5891 6.54256L21.6448 23.1125C21.6457 23.3889 21.5401 23.6544 21.3512 23.8502C21.1624 24.046 20.9059 24.1561 20.6383 24.1561H3.60606C3.05021 24.1561 2.59961 23.6905 2.59961 23.1161V0.799766ZM4.61251 1.83977V22.0761H19.6284L19.5797 7.58617H15.0216C14.4658 7.58617 14.0152 7.12055 14.0152 6.54617V1.83977H4.61251ZM16.0281 3.31055L18.1529 5.50617H16.0281V3.31055Z" fill="#E6002E"/>
<path d="M16.4169 10.3125V16H15.1846V10.3125H16.4169ZM18.583 12.711V13.6953H16.0729V12.711H18.583ZM18.8249 10.3125V11.3008H16.0729V10.3125H18.8249Z" fill="#E6002E"/>
<path d="M12.1392 16H10.9295L10.9371 15.0156H12.1392C12.4139 15.0156 12.6457 14.9506 12.8347 14.8203C13.0238 14.6875 13.1674 14.4922 13.2657 14.2344C13.364 13.9739 13.4131 13.6575 13.4131 13.2851V13.0235C13.4131 12.7422 13.3854 12.4948 13.33 12.2813C13.2745 12.0651 13.1926 11.8841 13.0843 11.7383C12.9759 11.5925 12.8411 11.4831 12.6797 11.4102C12.521 11.3372 12.3382 11.3008 12.1316 11.3008H10.9068V10.3125H12.1316C12.5046 10.3125 12.8448 10.3776 13.1523 10.5079C13.4623 10.638 13.7294 10.8243 13.9537 11.0664C14.1805 11.3086 14.3556 11.5951 14.4791 11.9258C14.6027 12.2565 14.6644 12.625 14.6644 13.0313V13.2851C14.6644 13.6888 14.6027 14.0573 14.4791 14.3907C14.3556 14.7214 14.1805 15.0079 13.9537 15.25C13.7294 15.4896 13.4635 15.6745 13.1561 15.8047C12.8486 15.9349 12.5096 16 12.1392 16ZM11.6288 10.3125V16H10.3965V10.3125H11.6288Z" fill="#E6002E"/>
<path d="M7.77828 14.0235H6.39469V13.0351H7.77828C7.98235 13.0351 8.14617 13 8.26966 12.9297C8.3957 12.8594 8.48767 12.7631 8.54566 12.6407C8.60612 12.5156 8.63639 12.3751 8.63639 12.2187C8.63639 12.0573 8.60612 11.9075 8.54566 11.7695C8.48767 11.6289 8.3957 11.5156 8.26966 11.4297C8.14617 11.3438 7.98235 11.3008 7.77828 11.3008H6.84076V16H5.6084V10.3125H7.77828C8.21678 10.3125 8.59226 10.3946 8.90481 10.5586C9.21983 10.7227 9.46045 10.9479 9.62682 11.2344C9.79567 11.5183 9.88006 11.8438 9.88006 12.211C9.88006 12.5782 9.79567 12.8971 9.62682 13.168C9.46045 13.4388 9.21983 13.6498 8.90481 13.8008C8.59226 13.9492 8.21678 14.0235 7.77828 14.0235Z" fill="#E6002E"/>
</g>
</g>
<defs>
<clipPath id="clip0_2306_28465">
<rect width="24" height="24" fill="white"/>
</clipPath>
</defs>
</svg>
