<svg width="42" height="42" viewBox="0 0 42 42" fill="none" xmlns="http://www.w3.org/2000/svg">
<path d="M29.3631 19.3765C33.0289 19.3765 36 16.3924 36 12.7166C36 9.03553 33.0289 6.05664 29.3631 6.05664C25.6918 6.05664 22.7207 9.03553 22.7207 12.7166C22.7207 13.3973 22.8222 14.0509 23.0093 14.6725L16.2761 18.7496C15.1914 17.5656 13.6417 16.8262 11.9157 16.8262C8.64527 16.8262 6 19.4838 6 22.7577C6 26.0369 8.64527 28.6893 11.9157 28.6893C13.7167 28.6893 15.3305 27.8798 16.4152 26.6047L21.5025 29.2947C21.3475 29.7876 21.2619 30.3124 21.2619 30.8592C21.2674 33.7308 23.5865 36.0566 26.4507 36.0566C29.3204 36.0566 31.6395 33.7308 31.6395 30.8592C31.6395 27.9819 29.3204 25.6566 26.4507 25.6566C24.8797 25.6566 23.4691 26.3582 22.5178 27.4676L17.5533 24.5635C17.7352 23.9953 17.8312 23.3899 17.8312 22.7578C17.8312 22.1472 17.7404 21.5575 17.564 21.0054L24.4788 17.2281C25.6866 18.5461 27.4286 19.3765 29.3631 19.3765ZM26.1728 9.52316C26.9957 8.70323 28.1128 8.19986 29.3631 8.19986C30.6083 8.19986 31.725 8.70317 32.548 9.52316C33.3602 10.3431 33.8625 11.4629 33.8625 12.7166C33.8625 13.965 33.3602 15.0901 32.548 15.9099C31.725 16.7298 30.6083 17.2333 29.3631 17.2333C28.2463 17.2333 27.2362 16.8314 26.4455 16.1512H26.44C26.3491 16.0764 26.2584 15.9958 26.1728 15.9099C25.5369 15.2668 25.0934 14.4417 24.9279 13.5098C24.8796 13.2524 24.8582 12.9845 24.8582 12.7166C24.8582 11.4629 25.3605 10.3431 26.1728 9.52316ZM15.6295 23.4379C15.4959 24.2098 15.122 24.9009 14.5876 25.4367C14.5448 25.4796 14.4968 25.5226 14.4486 25.5655C13.7753 26.1761 12.8937 26.5461 11.9157 26.5461C10.8684 26.5461 9.92777 26.1228 9.24387 25.4368C8.55973 24.7456 8.13756 23.8079 8.13756 22.7578C8.13756 21.7077 8.55973 20.77 9.24387 20.0787C9.92777 19.3928 10.8684 18.9695 11.9157 18.9695C12.8668 18.9695 13.7219 19.318 14.3899 19.8967C14.4593 19.9552 14.5235 20.0144 14.5877 20.0787C15.1166 20.6145 15.4908 21.2948 15.6295 22.0613C15.6723 22.2863 15.6937 22.5165 15.6937 22.7578C15.6936 22.9879 15.6723 23.2187 15.6295 23.4379ZM23.4476 30.3234C23.5598 29.6908 23.8591 29.1335 24.2972 28.6945C24.3346 28.6568 24.3773 28.6139 24.4201 28.582C24.9598 28.0891 25.6653 27.7998 26.4506 27.7998C27.3005 27.7998 28.0537 28.1373 28.6096 28.6946C29.1653 29.2518 29.502 30.0074 29.502 30.8592C29.502 31.7059 29.1653 32.4615 28.6096 33.0182C28.0537 33.5755 27.3005 33.9134 26.4506 33.9134C25.6065 33.9134 24.853 33.5754 24.2972 33.0182C23.7414 32.4615 23.4048 31.7059 23.3994 30.8592C23.3994 30.6771 23.4155 30.4945 23.4476 30.3234Z" fill="white"/>
</svg>
