<svg width="29" height="28" viewBox="0 0 29 28" fill="none" xmlns="http://www.w3.org/2000/svg">
<path d="M19.6832 21.4514C17.2751 23.3207 14.2452 24.2021 11.2103 23.916C8.17529 23.6299 5.3634 22.1979 3.34698 19.9115C1.33055 17.6251 0.261145 14.6561 0.35645 11.609C0.451754 8.56184 1.7046 5.66554 3.85997 3.50964C6.01572 1.35411 8.91181 0.101176 11.9587 0.00586429C15.0057 -0.0894472 17.9744 0.980032 20.2606 2.99661C22.5469 5.01318 23.9788 7.82526 24.2648 10.8604C24.5509 13.8956 23.6697 16.9258 21.8005 19.3341L27.8725 25.4065C28.0697 25.5897 28.2139 25.8226 28.2898 26.0807C28.3657 26.3389 28.3706 26.6128 28.304 26.8735C28.2373 27.1343 28.1016 27.3722 27.911 27.5622C27.7205 27.7523 27.4823 27.8874 27.2214 27.9534C26.961 28.0199 26.6874 28.0152 26.4295 27.9396C26.1715 27.864 25.9387 27.7204 25.7553 27.5239L19.6832 21.4514ZM21.3211 11.9831C21.3389 10.7918 21.1196 9.60888 20.676 8.50309C20.2324 7.39731 19.5734 6.39077 18.7373 5.54203C17.9012 4.6933 16.9046 4.0193 15.8057 3.55925C14.7067 3.09921 13.5272 2.86229 12.3359 2.86229C11.1445 2.86229 9.96504 3.09921 8.86607 3.55925C7.7671 4.0193 6.77057 4.6933 5.93445 5.54203C5.09834 6.39077 4.43932 7.39731 3.99574 8.50309C3.55216 9.60888 3.33288 10.7918 3.35064 11.9831C3.38582 14.3431 4.34796 16.5946 6.02919 18.251C7.71042 19.9075 9.97578 20.836 12.3359 20.836C14.696 20.836 16.9613 19.9075 18.6426 18.251C20.3238 16.5946 21.2859 14.3431 21.3211 11.9831Z" fill="#003596"/>
</svg>
