<svg width="17" height="16" viewBox="0 0 17 16" fill="none" xmlns="http://www.w3.org/2000/svg">
<mask id="mask0_2306_38132" style="mask-type:luminance" maskUnits="userSpaceOnUse" x="0" y="0" width="16" height="16">
<path d="M12.0839 4.26653C12.0839 6.3284 10.4124 7.99987 8.35052 7.99987C6.2886 7.99987 4.61719 6.3284 4.61719 4.26653C4.61719 2.20467 6.2886 0.533203 8.35052 0.533203C10.4124 0.533203 12.0839 2.20467 12.0839 4.26653Z" fill="white"/>
<path d="M0.883789 15.4664V14.0442C0.883789 11.2993 2.96236 9.06641 5.52741 9.06641H11.1734C13.7385 9.06641 15.8171 11.2993 15.8171 14.0442V15.4664" fill="white"/>
</mask>
<g mask="url(#mask0_2306_38132)">
<path d="M10.6971 4.26647C10.6971 5.56254 9.6464 6.61315 8.3504 6.61315V9.38648C11.1781 9.38648 13.4704 7.09416 13.4704 4.26647H10.6971ZM8.3504 6.61315C7.05435 6.61315 6.00374 5.56254 6.00374 4.26647H3.2304C3.2304 7.09416 5.52267 9.38648 8.3504 9.38648V6.61315ZM6.00374 4.26647C6.00374 2.97045 7.05435 1.91982 8.3504 1.91982V-0.853516C5.52267 -0.853516 3.2304 1.43878 3.2304 4.26647H6.00374ZM8.3504 1.91982C9.64646 1.91982 10.6971 2.97045 10.6971 4.26647H13.4704C13.4704 1.43878 11.1781 -0.853516 8.3504 -0.853516V1.91982ZM2.2704 15.4665V14.0442H-0.50293V15.4665H2.2704ZM2.2704 14.0442C2.2704 11.972 3.81815 10.4532 5.52736 10.4532V7.67982C2.10647 7.67982 -0.50293 10.6267 -0.50293 14.0442H2.2704ZM5.52736 10.4532H11.1734V7.67982H5.52736V10.4532ZM11.1734 10.4532C12.8826 10.4532 14.4304 11.972 14.4304 14.0442H17.2037C17.2037 10.6267 14.5943 7.67982 11.1734 7.67982V10.4532ZM14.4304 14.0442V15.4665H17.2037V14.0442H14.4304Z" fill="#2B2F35"/>
</g>
</svg>
